# Alias OBJ Model File
# Exported from SketchUp, (c) 2000-2012 Trimble Navigation Limited
# File units = centimeters

mtllib ElwFor_Grass01.mtl

g Mesh1 ElwFor_Grass01_C01_1 Model

usemtl _4
v 22.8031 0 -32.8862
vt -6.51201e-15 -3.43571
vn 0.873704 0.34202 -0.345924
v 19.8532 9.39693 -31.046
vt -0.246063 0.501298
vn 0.832089 0.446198 -0.329447
v 21.2336 9.39693 -27.5594
vt -1.72244 0.501298
f 1/1/1 2/2/2 3/3/2

v 15.9396 17.7836 -26.1355
vt -1.47638 2.30202
vn 0.779776 0.544639 -0.308735
vt -1.72244 -1.63498
vt -0.246063 -1.63498
f 4/4/3 3/5/2 2/6/2

v 15.0193 17.7836 -28.46
vt -0.492126 2.30202
vn 0.717438 0.636078 -0.284054
f 2/6/3 5/7/4 4/4/4

vt -1.47638 0.148646
vt -0.492126 0.148646
v 8.56113 24.7302 -25.2308
vt -0.738189 4.08565
vn 0.645877 0.71934 -0.255721
f 4/8/4 5/9/4 6/10/5

vn 0.485807 0.85264 -0.192345
v 9.02129 24.7302 -24.0686
vt -1.23031 4.08565
f 6/10/6 7/11/6 4/8/5

vt -1.23031 -0.349875
vt -0.738189 -0.349875
v -5.35794e-15 27.9859 -21.169
vt -0.984252 3.58713
vn 0.302706 0.945519 -0.11985
f 7/12/6 6/13/6 8/14/7

v 24.6437 0 -28.2373
vt -1.9685 -3.43571
f 3/3/1 9/15/1 1/1/1

g Mesh2 ElwFor_Grass01_C01_2 Model

v 30.845 0 -28.6264
vn -0.823528 0.34202 0.452575
v 33.5413 9.39693 -30.8213
vn -0.784303 0.446198 0.431018
v 31.7353 9.39693 -34.1078
f 10/1/8 11/2/9 12/3/9

v 36.8094 17.7836 -36.1831
vn -0.734994 0.544639 0.40392
f 13/4/10 12/5/9 11/6/9

v 38.0134 17.7836 -33.9922
vn -0.676237 0.636078 0.37163
f 11/6/10 14/7/11 13/4/11

v 44.0166 24.7302 -38.0044
vn -0.608785 0.71934 0.334561
f 13/8/11 14/9/11 15/10/12

vn -0.457907 0.85264 0.251646
v 43.4146 24.7302 -39.0999
f 15/10/13 16/11/13 13/8/12

v 52.0019 27.9859 -43.1059
vn -0.285322 0.945519 0.1568
f 16/12/13 15/13/13 17/14/14

v 28.4369 0 -33.0083
f 12/3/8 18/15/8 10/1/8

g Mesh3 ElwFor_Grass01_C02_1 Model

v 22.6327 14.4537 -22.5608
vt -1.0187 0.870291
vn 0.504567 0.660125 -0.55646
v 26.6029 8.2693 -26.2973
vt -1.18848 -2.3711
vn 0.590883 0.47561 -0.651653
v 24.6861 8.2693 -28.0354
vt -0.169783 -2.3711
f 19/16/15 20/17/16 21/18/16

v 25.9059 0 -30.0226
vt -7.10543e-15 -2.18945
vn 0.647326 0.26705 -0.713901
vt -0.169783 1.18887
vt -1.18848 1.18887
f 22/19/17 21/20/16 20/21/16

v 28.4616 0 -27.7052
vt -1.35827 -2.18945
f 20/21/17 23/22/17 22/19/17

v 21.3548 14.4537 -23.7195
vt -0.339567 0.870291
vn 0.455697 0.734691 -0.502563
f 21/18/15 24/23/18 19/16/18

vt -1.0187 -0.727518
vt -0.339567 -0.727518
v 17.4844 19.111 -18.809
vt -0.50935 2.33721
vn 0.401881 0.801283 -0.443213
f 19/24/18 24/25/18 25/26/19

vn 0.262905 0.920225 -0.289944
v 18.1233 19.111 -18.2297
vt -0.848917 2.33721
f 25/26/20 26/27/20 19/24/19

vt -0.848917 -1.44483
vt -0.50935 -1.44483
v 13.1954 20.2387 -13.4369
vt -0.679134 1.29245
vn 0.108957 0.986757 -0.120162
f 26/28/20 25/29/20 27/30/21

g Mesh4 ElwFor_Grass01_C01_3 Model

v 27.6616 0 -35.6542
vn 0.117632 0.34202 0.932301
v 26.6134 9.39693 -38.9693
vn 0.112029 0.446198 0.887895
v 22.8929 9.39693 -38.4998
f 28/1/22 29/2/23 30/3/23

v 22.8312 17.7836 -43.9816
vn 0.104986 0.544639 0.832073
f 31/4/24 30/5/23 29/6/23

v 25.3115 17.7836 -44.2946
vn 0.0965932 0.636078 0.765555
f 29/6/24 32/7/25 31/4/25

v 23.791 24.7302 -51.3531
vn 0.0869584 0.71934 0.689194
f 31/8/25 32/9/25 33/10/26

vn 0.0654072 0.85264 0.518389
v 22.5508 24.7302 -51.1967
f 33/10/27 34/11/27 31/8/26

v 21.9873 27.9859 -60.6557
vn 0.0407551 0.945519 0.323007
f 34/12/27 33/13/27 35/14/28

v 22.701 0 -35.0283
f 30/3/22 36/15/22 28/1/22

g Mesh5 ElwFor_Grass01_C02_2 Model

v 19.1514 14.4537 -36.6189
vn 0.53967 0.660125 0.522485
v 22.7561 8.2693 -32.5287
vn 0.631992 0.47561 0.611867
v 24.5559 8.2693 -34.3877
f 37/16/29 38/17/30 39/18/30

v 26.5022 0 -33.1036
vn 0.692361 0.26705 0.670314
f 40/19/31 39/20/30 38/21/30

v 24.1025 0 -30.6249
f 38/21/31 41/22/31 40/19/31

v 20.3512 14.4537 -37.8582
vn 0.4874 0.734691 0.47188
f 39/18/29 42/23/32 37/16/32

v 15.5699 19.111 -41.887
vn 0.42984 0.801283 0.416153
f 37/24/32 42/25/32 43/26/33

vn 0.281196 0.920225 0.272242
v 14.97 19.111 -41.2674
f 43/26/34 44/27/34 37/24/33

v 10.3409 20.2387 -46.3493
vn 0.116537 0.986757 0.112826
f 44/28/34 43/29/34 45/30/35

g Mesh6 ElwFor_Grass01_C02_3 Model

v 25.1559 7.831 -18.3491
vn 0.294725 0.521031 -0.801039
v 27.0244 4.4803 -22.1786
vn 0.323253 0.351586 -0.878576
v 24.596 4.4803 -23.0721
f 46/16/36 47/17/37 48/18/37

v 24.8085 0 -24.8985
vn 0.339074 0.189018 -0.921575
f 49/19/38 48/20/37 47/21/37

v 28.0463 0 -23.7072
f 47/21/38 50/22/38 49/19/38

v 23.537 7.831 -18.9447
vn 0.27594 0.60115 -0.749984
f 48/18/36 51/23/39 46/16/39

v 22.2617 10.3543 -14.2298
vn 0.252815 0.681129 -0.68713
f 46/24/39 51/25/39 52/26/40

vn 0.180313 0.852826 -0.490077
v 23.0712 10.3543 -13.9319
f 52/26/41 53/27/41 46/24/40

v 20.8186 10.9653 -9.05871
vn 0.0795191 0.973122 -0.216127
f 53/28/41 52/29/41 54/30/42

g Mesh7 ElwFor_Grass01_C02_4 Model

v 29.4482 14.4537 -38.304
vn -0.28955 0.660125 0.693106
v 26.9553 8.2693 -33.4553
vn -0.339083 0.47561 0.811676
v 29.3428 8.2693 -32.4579
f 55/16/43 56/17/44 57/18/44

v 28.8574 0 -30.1772
vn -0.371473 0.26705 0.889209
f 58/19/45 57/20/44 56/21/44

v 25.6741 0 -31.5071
f 56/21/45 59/22/45 58/19/45

v 31.0399 14.4537 -37.6391
vn -0.261505 0.734691 0.625975
f 57/18/43 60/23/46 55/16/46

v 33.0464 19.111 -43.5608
vn -0.230623 0.801283 0.55205
f 55/24/46 60/25/46 61/26/47

vn -0.15087 0.920225 0.361144
v 32.2505 19.111 -43.8932
f 61/26/48 62/27/48 55/24/47

v 35.2931 20.2387 -50.0574
vn -0.0625256 0.986757 0.14967
f 62/28/48 61/29/48 63/30/49

g Mesh8 ElwFor_Grass01_C02_5 Model

v 35.296 14.4537 -21.8118
vn -0.473736 0.660125 -0.582932
v 32.203 8.2693 -26.3015
vn -0.554778 0.47561 -0.682654
v 30.195 8.2693 -24.6696
f 64/16/50 65/17/51 66/18/51

v 28.4151 0 -26.176
vn -0.607771 0.26705 -0.747863
f 67/19/52 66/20/51 65/21/51

v 31.0924 0 -28.3518
f 65/21/52 68/22/52 67/19/52

v 33.9573 14.4537 -20.7239
vn -0.427852 0.734691 -0.526471
f 66/18/50 69/23/53 64/16/53

v 38.2258 19.111 -16.1552
vn -0.377324 0.801283 -0.464297
f 64/24/53 69/25/53 70/26/54

vn -0.246841 0.920225 -0.303737
v 38.8951 19.111 -16.6992
f 70/26/55 71/27/55 64/24/54

v 42.8873 20.2387 -11.103
vn -0.102299 0.986757 -0.125879
f 71/28/55 70/29/55 72/30/56

g Mesh9 ElwFor_Grass01_C02_6 Model

v 31.7249 7.831 -39.6414
vn -0.395441 0.521031 0.756408
v 29.3787 4.4803 -36.0844
vn -0.433717 0.351586 0.829625
v 31.6718 4.4803 -34.8856
f 73/16/57 74/17/58 75/18/58

v 31.2259 0 -33.1018
vn -0.454945 0.189018 0.870229
f 76/19/59 75/20/58 74/21/58

v 28.1685 0 -34.7002
f 74/21/59 77/22/59 76/19/59

v 33.2536 7.831 -38.8423
vn -0.370237 0.60115 0.708197
f 75/18/57 78/23/60 73/16/60

v 35.1255 10.3543 -43.3537
vn -0.339208 0.681129 0.648846
f 73/24/60 78/25/60 79/26/61

vn -0.241931 0.852826 0.462771
v 34.3612 10.3543 -43.7533
f 79/26/62 80/27/62 73/24/61

v 37.2226 10.9653 -48.2958
vn -0.106693 0.973122 0.204085
f 80/28/62 79/29/62 81/30/63

g Mesh10 ElwFor_Grass01_C02_7 Model

v 38.4727 7.831 -27.1412
vn -0.801039 0.521031 -0.294725
v 34.6431 4.4803 -29.0097
vn -0.878576 0.351586 -0.323253
v 33.7496 4.4803 -26.5814
f 82/16/64 83/17/65 84/18/65

v 31.9233 0 -26.7938
vn -0.921575 0.189018 -0.339074
f 85/19/66 84/20/65 83/21/65

v 33.1145 0 -30.0316
f 83/21/66 86/22/66 85/19/66

v 37.877 7.831 -25.5223
vn -0.749984 0.60115 -0.27594
f 84/18/64 87/23/67 82/16/67

v 42.592 10.3543 -24.247
vn -0.68713 0.681129 -0.252815
f 82/24/67 87/25/67 88/26/68

vn -0.490077 0.852826 -0.180313
v 42.8898 10.3543 -25.0565
f 88/26/69 89/27/69 82/24/68

v 47.763 10.9653 -22.804
vn -0.216127 0.973122 -0.0795191
f 89/28/69 88/29/69 90/30/70

g Mesh11 ElwFor_Grass01_C02_8 Model

v 16.5411 7.831 -33.1173
vn 0.839783 0.521031 0.152614
v 20.6349 4.4803 -31.935
vn 0.92107 0.351586 0.167387
v 21.0976 4.4803 -34.4808
f 91/16/71 92/17/72 93/18/72

v 22.9333 0 -34.5855
vn 0.966149 0.189018 0.175579
f 94/19/73 93/20/72 92/21/72

v 22.3164 0 -31.1911
f 92/21/73 95/22/73 94/19/73

v 16.8495 7.831 -34.8145
vn 0.786258 0.60115 0.142887
f 93/18/71 96/23/74 91/16/74

v 11.9856 10.3543 -35.2601
vn 0.720364 0.681129 0.130912
f 91/24/74 96/25/74 97/26/75

vn 0.51378 0.852826 0.0933697
v 11.8314 10.3543 -34.4115
f 97/26/76 98/27/76 91/24/75

v 6.64341 10.9653 -35.7926
vn 0.22658 0.973122 0.0411766
f 98/28/76 97/29/76 99/30/77

g Mesh12 ElwFor_Grass01_C01_4 Model

v 25.0816 0 -25.5152
vn 5.55112e-17 0.34202 -0.939693
v 25.7066 9.39693 -22.095
vn 5.58703e-17 0.446198 -0.894934
v 29.4566 9.39693 -22.095
f 100/1/78 101/2/79 102/3/79

v 28.8316 17.7836 -16.6486
vn 5.55112e-17 0.544639 -0.838671
f 103/4/80 102/5/79 101/6/79

vn 3.33067e-16 0.544639 -0.838671
v 26.3316 17.7836 -16.6486
vn 1.39676e-16 0.636078 -0.771625
f 101/6/81 104/7/82 103/4/82

v 26.9566 24.7302 -9.45519
vn -5.55112e-17 0.71934 -0.694658
f 103/8/82 104/9/82 105/10/83

vn 0 0.85264 -0.522499
v 28.2066 24.7302 -9.45519
vn 0 0.71934 -0.694658
f 105/10/84 106/11/84 103/8/85

v 27.5816 27.9859 -0
vn 0 0.945519 -0.325568
f 106/12/84 105/13/84 107/14/86

v 30.0816 0 -25.5152
f 102/3/78 108/15/78 100/1/78

